<svg xmlns="http://www.w3.org/2000/svg" viewBox="0 0 250 250"><defs><style>.b{fill:#fff}.c{fill:#231f20}</style></defs><path fill="#fff200" d="M0 0h250v250H0z"/><path class="b" d="M32.3 126.2H17V81.1h15.3zm-1.2-55.5a6.5 6.5 0 0 1-2 4.7 6.3 6.3 0 0 1-7.7 1 6.4 6.4 0 0 1-2.3-2.3 6.9 6.9 0 0 1-.9-3.4 6.7 6.7 0 0 1 1.9-4.8 6 6 0 0 1 4.5-2 6.1 6.1 0 0 1 4.6 2 6.6 6.6 0 0 1 1.9 4.8zm56.2 36.8H56.8a11.1 11.1 0 0 0 4.4 6.7A12.8 12.8 0 0 0 69 117q7.7 0 17-4.6v10a45.6 45.6 0 0 1-8 3.2 42 42 0 0 1-12.3 1.5 27.8 27.8 0 0 1-13.6-3.1 20.3 20.3 0 0 1-8.4-8.4 25.6 25.6 0 0 1-2.8-12 25 25 0 0 1 2.8-12 19.7 19.7 0 0 1 8.4-8.2 28.6 28.6 0 0 1 13.6-3A23.2 23.2 0 0 1 76 82.7a19 19 0 0 1 8.1 7.7q3.2 5.4 3.2 14zm-14.4-7.9a10.8 10.8 0 0 0-2-7 7.1 7.1 0 0 0-6-2.5 8 8 0 0 0-6.2 2.6 10 10 0 0 0-2.4 7zm67.5 26.6H125v-6.4a23.3 23.3 0 0 1-6.8 5.4 18.8 18.8 0 0 1-8.6 1.8q-9.8 0-12.7-6a30.5 30.5 0 0 1-2.8-13.4V81h15.3v24.4a16.4 16.4 0 0 0 1.1 6.4q1.2 2.8 5.1 2.8a7.1 7.1 0 0 0 5.4-2 33.9 33.9 0 0 0 4-5.1V81h15.3zm57.3-22.9a31 31 0 0 1-1.2 8.8 23.8 23.8 0 0 1-3.8 7.6 18 18 0 0 1-6.5 5.3 20.6 20.6 0 0 1-9.2 2 19.4 19.4 0 0 1-6.7-1 26.6 26.6 0 0 1-4.9-2.4v23.1h-15.3V81.1h15.3v4a22.6 22.6 0 0 1 5.1-3.4 17 17 0 0 1 7.6-1.4 19.4 19.4 0 0 1 9.2 2.4 19 19 0 0 1 7.5 7.6q3 5.2 3 13zm-16 .4a15.3 15.3 0 0 0-1.3-6.6 8.2 8.2 0 0 0-3.2-3.7 8 8 0 0 0-4-1.1 9.6 9.6 0 0 0-4.5.9 15.9 15.9 0 0 0-3.3 2.3v17.2l1.7 1a15.3 15.3 0 0 0 1.9 1 12.8 12.8 0 0 0 2 .6 9 9 0 0 0 2.2.3 7.3 7.3 0 0 0 6-3.2q2.4-3.2 2.4-8.7z"/><path class="c" d="M37.3 131.2H22V86.1h15.3zm-1.2-55.5a6.5 6.5 0 0 1-2 4.7 6.3 6.3 0 0 1-7.7 1 6.4 6.4 0 0 1-2.3-2.3 6.9 6.9 0 0 1-.9-3.4 6.7 6.7 0 0 1 1.9-4.8 6 6 0 0 1 4.5-2 6.1 6.1 0 0 1 4.6 2 6.6 6.6 0 0 1 1.9 4.8zm56.2 36.8H61.8a11.1 11.1 0 0 0 4.4 6.7A12.8 12.8 0 0 0 74 122q7.7 0 17-4.6v10a45.6 45.6 0 0 1-8 3.2 42 42 0 0 1-12.3 1.5 27.8 27.8 0 0 1-13.6-3.1 20.3 20.3 0 0 1-8.4-8.4 25.6 25.6 0 0 1-2.8-12 25 25 0 0 1 2.8-12 19.7 19.7 0 0 1 8.4-8.2 28.6 28.6 0 0 1 13.6-3A23.2 23.2 0 0 1 81 87.7a19 19 0 0 1 8.1 7.7q3.2 5.4 3.2 14zm-14.4-7.9a10.8 10.8 0 0 0-2-7 7.1 7.1 0 0 0-6-2.5 8 8 0 0 0-6.2 2.6 10 10 0 0 0-2.4 7zm67.5 26.6H130v-6.4a23.3 23.3 0 0 1-6.8 5.4 18.8 18.8 0 0 1-8.6 1.8q-9.8 0-12.7-6a30.5 30.5 0 0 1-2.8-13.4V86h15.3v24.4a16.4 16.4 0 0 0 1.1 6.4q1.2 2.8 5.1 2.8a7.1 7.1 0 0 0 5.4-2 33.9 33.9 0 0 0 4-5.1V86h15.3zm57.3-22.9a31 31 0 0 1-1.2 8.8 23.8 23.8 0 0 1-3.8 7.6 18 18 0 0 1-6.5 5.3 20.6 20.6 0 0 1-9.2 2 19.4 19.4 0 0 1-6.7-1 26.6 26.6 0 0 1-4.9-2.4v23.1h-15.3V86.1h15.3v4a22.6 22.6 0 0 1 5.1-3.4 17 17 0 0 1 7.6-1.4 19.4 19.4 0 0 1 9.2 2.4 19 19 0 0 1 7.5 7.6q3 5.2 3 13zm-16 .4a15.3 15.3 0 0 0-1.3-6.6 8.2 8.2 0 0 0-3.2-3.7 8 8 0 0 0-4-1.1 9.6 9.6 0 0 0-4.5.9 15.9 15.9 0 0 0-3.3 2.3v17.2l1.7 1a15.3 15.3 0 0 0 1.9 1 12.8 12.8 0 0 0 2 .6 9 9 0 0 0 2.2.3 7.3 7.3 0 0 0 6-3.2q2.4-3.2 2.4-8.7z"/><path class="b" d="M42.3 136.2H27V91.1h15.3zm-1.2-55.5a6.5 6.5 0 0 1-2 4.7 6.3 6.3 0 0 1-7.7 1 6.4 6.4 0 0 1-2.3-2.3 6.9 6.9 0 0 1-.9-3.4 6.7 6.7 0 0 1 1.9-4.8 6 6 0 0 1 4.5-2 6.1 6.1 0 0 1 4.6 2 6.6 6.6 0 0 1 1.9 4.8zm56.2 36.8H66.8a11.1 11.1 0 0 0 4.4 6.7A12.8 12.8 0 0 0 79 127q7.7 0 17-4.6v10a45.6 45.6 0 0 1-8 3.2 42 42 0 0 1-12.3 1.5 27.8 27.8 0 0 1-13.6-3.1 20.3 20.3 0 0 1-8.4-8.4 25.6 25.6 0 0 1-2.8-12 25 25 0 0 1 2.8-12 19.7 19.7 0 0 1 8.4-8.2 28.6 28.6 0 0 1 13.6-3A23.2 23.2 0 0 1 86 92.7a19 19 0 0 1 8.1 7.7q3.2 5.4 3.2 14zm-14.4-7.9a10.8 10.8 0 0 0-2-7 7.1 7.1 0 0 0-6-2.5 8 8 0 0 0-6.2 2.6 10 10 0 0 0-2.4 7zm67.5 26.6H135v-6.4a23.3 23.3 0 0 1-6.8 5.4 18.8 18.8 0 0 1-8.6 1.8q-9.8 0-12.7-6a30.5 30.5 0 0 1-2.8-13.4V91h15.3v24.4a16.4 16.4 0 0 0 1.1 6.4q1.2 2.8 5.1 2.8a7.1 7.1 0 0 0 5.4-2 33.9 33.9 0 0 0 4-5.1V91h15.3zm57.3-22.9a31 31 0 0 1-1.2 8.8 23.8 23.8 0 0 1-3.8 7.6 18 18 0 0 1-6.5 5.3 20.6 20.6 0 0 1-9.2 2 19.4 19.4 0 0 1-6.7-1 26.6 26.6 0 0 1-4.9-2.4v23.1h-15.3V91.1h15.3v4a22.6 22.6 0 0 1 5.1-3.4 17 17 0 0 1 7.6-1.4 19.4 19.4 0 0 1 9.2 2.4 19 19 0 0 1 7.5 7.6q3 5.2 3 13zm-16 .4a15.3 15.3 0 0 0-1.3-6.6 8.2 8.2 0 0 0-3.2-3.7 8 8 0 0 0-4-1.1 9.6 9.6 0 0 0-4.5.9 15.9 15.9 0 0 0-3.3 2.3v17.2l1.7 1a15.3 15.3 0 0 0 1.9 1 12.8 12.8 0 0 0 2 .6 9 9 0 0 0 2.2.3 7.3 7.3 0 0 0 6-3.2q2.4-3.2 2.4-8.7z"/><path class="c" d="M47.3 141.2H32V96.1h15.3zm-1.2-55.5a6.5 6.5 0 0 1-2 4.7 6.3 6.3 0 0 1-7.7 1 6.4 6.4 0 0 1-2.3-2.3 6.9 6.9 0 0 1-.9-3.4 6.7 6.7 0 0 1 1.9-4.8 6 6 0 0 1 4.5-2 6.1 6.1 0 0 1 4.6 2 6.6 6.6 0 0 1 1.9 4.8zm56.2 36.8H71.8a11.1 11.1 0 0 0 4.4 6.7A12.8 12.8 0 0 0 84 132q7.7 0 17-4.6v10a45.6 45.6 0 0 1-8 3.2 42 42 0 0 1-12.3 1.5 27.8 27.8 0 0 1-13.6-3.1 20.3 20.3 0 0 1-8.4-8.4 25.6 25.6 0 0 1-2.8-12 25 25 0 0 1 2.8-12 19.7 19.7 0 0 1 8.4-8.2 28.6 28.6 0 0 1 13.6-3A23.2 23.2 0 0 1 91 97.7a19 19 0 0 1 8.1 7.7q3.2 5.4 3.2 14zm-14.4-7.9a10.8 10.8 0 0 0-2-7 7.1 7.1 0 0 0-6-2.5 8 8 0 0 0-6.2 2.6 10 10 0 0 0-2.4 7zm67.5 26.6H140v-6.4a23.3 23.3 0 0 1-6.8 5.4 18.8 18.8 0 0 1-8.6 1.8q-9.8 0-12.7-6a30.5 30.5 0 0 1-2.8-13.4V96h15.3v24.4a16.4 16.4 0 0 0 1.1 6.4q1.2 2.8 5.1 2.8a7.1 7.1 0 0 0 5.4-2 33.9 33.9 0 0 0 4-5.1V96h15.3zm57.3-22.9a31 31 0 0 1-1.2 8.8 23.8 23.8 0 0 1-3.8 7.6 18 18 0 0 1-6.5 5.3 20.6 20.6 0 0 1-9.2 2 19.4 19.4 0 0 1-6.7-1 26.6 26.6 0 0 1-4.9-2.4v23.1h-15.3V96.1h15.3v4a22.6 22.6 0 0 1 5.1-3.4 17 17 0 0 1 7.6-1.4 19.4 19.4 0 0 1 9.2 2.4 19 19 0 0 1 7.5 7.6q3 5.2 3 13zm-16 .4a15.3 15.3 0 0 0-1.3-6.6 8.2 8.2 0 0 0-3.2-3.7 8 8 0 0 0-4-1.1 9.6 9.6 0 0 0-4.5.9 15.9 15.9 0 0 0-3.3 2.3v17.2l1.7 1a15.3 15.3 0 0 0 1.9 1 12.8 12.8 0 0 0 2 .6 9 9 0 0 0 2.2.3 7.3 7.3 0 0 0 6-3.2q2.4-3.2 2.4-8.7z"/><path class="b" d="M52.3 146.2H37v-45.1h15.3zm-1.2-55.5a6.5 6.5 0 0 1-2 4.7 6.3 6.3 0 0 1-7.7 1 6.4 6.4 0 0 1-2.3-2.3 6.9 6.9 0 0 1-.9-3.4 6.7 6.7 0 0 1 1.9-4.8 6 6 0 0 1 4.5-2 6.1 6.1 0 0 1 4.6 2 6.6 6.6 0 0 1 1.9 4.8zm56.2 36.8H76.8a11.1 11.1 0 0 0 4.4 6.7A12.8 12.8 0 0 0 89 137q7.7 0 17-4.6v10a45.6 45.6 0 0 1-8 3.2 42 42 0 0 1-12.3 1.5 27.8 27.8 0 0 1-13.6-3.1 20.3 20.3 0 0 1-8.4-8.4 25.6 25.6 0 0 1-2.8-12 25 25 0 0 1 2.8-12 19.7 19.7 0 0 1 8.4-8.2 28.6 28.6 0 0 1 13.6-3 23.2 23.2 0 0 1 10.2 2.4 19 19 0 0 1 8.1 7.7q3.2 5.4 3.2 14zm-14.4-7.9a10.8 10.8 0 0 0-2-7 7.1 7.1 0 0 0-6-2.5 8 8 0 0 0-6.2 2.6 10 10 0 0 0-2.4 7zm67.5 26.6H145v-6.4a23.3 23.3 0 0 1-6.8 5.4 18.8 18.8 0 0 1-8.6 1.8q-9.8 0-12.7-6a30.5 30.5 0 0 1-2.8-13.4V101h15.3v24.4a16.4 16.4 0 0 0 1.1 6.4q1.2 2.8 5.1 2.8a7.1 7.1 0 0 0 5.4-2 33.9 33.9 0 0 0 4-5.1V101h15.3zm57.3-22.9a31 31 0 0 1-1.2 8.8 23.8 23.8 0 0 1-3.8 7.6 18 18 0 0 1-6.5 5.3 20.6 20.6 0 0 1-9.2 2 19.4 19.4 0 0 1-6.7-1 26.6 26.6 0 0 1-4.9-2.4v23.1h-15.3v-65.6h15.3v4a22.6 22.6 0 0 1 5.1-3.4 17 17 0 0 1 7.6-1.4 19.4 19.4 0 0 1 9.2 2.4 19 19 0 0 1 7.5 7.6q3 5.2 3 13zm-16 .4a15.3 15.3 0 0 0-1.3-6.6 8.2 8.2 0 0 0-3.2-3.7 8 8 0 0 0-4-1.1 9.6 9.6 0 0 0-4.5.9 15.9 15.9 0 0 0-3.3 2.3v17.2l1.7 1a15.3 15.3 0 0 0 1.9 1 12.8 12.8 0 0 0 2 .6 9 9 0 0 0 2.2.3 7.3 7.3 0 0 0 6-3.2q2.4-3.2 2.4-8.7z"/><path class="c" d="M57.3 151.2H42v-45.1h15.3zm-1.2-55.5a6.5 6.5 0 0 1-2 4.7 6.3 6.3 0 0 1-7.7 1 6.4 6.4 0 0 1-2.3-2.3 6.9 6.9 0 0 1-.9-3.4 6.7 6.7 0 0 1 1.9-4.8 6 6 0 0 1 4.5-2 6.1 6.1 0 0 1 4.6 2 6.6 6.6 0 0 1 1.9 4.8zm56.2 36.8H81.8a11.1 11.1 0 0 0 4.4 6.7A12.8 12.8 0 0 0 94 142q7.7 0 17-4.6v10a45.6 45.6 0 0 1-8 3.2 42 42 0 0 1-12.3 1.5 27.8 27.8 0 0 1-13.6-3.1 20.3 20.3 0 0 1-8.4-8.4 25.6 25.6 0 0 1-2.8-12 25 25 0 0 1 2.8-12 19.7 19.7 0 0 1 8.4-8.2 28.6 28.6 0 0 1 13.6-3 23.2 23.2 0 0 1 10.2 2.4 19 19 0 0 1 8.1 7.7q3.2 5.4 3.2 14zm-14.4-7.9a10.8 10.8 0 0 0-2-7 7.1 7.1 0 0 0-6-2.5 8 8 0 0 0-6.2 2.6 10 10 0 0 0-2.4 7zm67.5 26.6H150v-6.4a23.3 23.3 0 0 1-6.8 5.4 18.8 18.8 0 0 1-8.6 1.8q-9.8 0-12.7-6a30.5 30.5 0 0 1-2.8-13.4V106h15.3v24.4a16.4 16.4 0 0 0 1.1 6.4q1.2 2.8 5.1 2.8a7.1 7.1 0 0 0 5.4-2 33.9 33.9 0 0 0 4-5.1V106h15.3zm57.3-22.9a31 31 0 0 1-1.2 8.8 23.8 23.8 0 0 1-3.8 7.6 18 18 0 0 1-6.5 5.3 20.6 20.6 0 0 1-9.2 2 19.4 19.4 0 0 1-6.7-1 26.6 26.6 0 0 1-4.9-2.4v23.1h-15.3v-65.6h15.3v4a22.6 22.6 0 0 1 5.1-3.4 17 17 0 0 1 7.6-1.4 19.4 19.4 0 0 1 9.2 2.4 19 19 0 0 1 7.5 7.6q3 5.2 3 13zm-16 .4a15.3 15.3 0 0 0-1.3-6.6 8.2 8.2 0 0 0-3.2-3.7 8 8 0 0 0-4-1.1 9.6 9.6 0 0 0-4.5.9 15.9 15.9 0 0 0-3.3 2.3v17.2l1.7 1a15.3 15.3 0 0 0 1.9 1 12.8 12.8 0 0 0 2 .6 9 9 0 0 0 2.2.3 7.3 7.3 0 0 0 6-3.2q2.4-3.2 2.4-8.7z"/><path class="b" d="M62.3 156.2H47v-45.1h15.3zm-1.2-55.5a6.5 6.5 0 0 1-2 4.7 6.3 6.3 0 0 1-7.7 1 6.4 6.4 0 0 1-2.3-2.3 6.9 6.9 0 0 1-.9-3.4 6.7 6.7 0 0 1 1.9-4.8 6 6 0 0 1 4.5-2 6.1 6.1 0 0 1 4.6 2 6.6 6.6 0 0 1 1.9 4.8zm56.2 36.8H86.8a11.1 11.1 0 0 0 4.4 6.7A12.8 12.8 0 0 0 99 147q7.7 0 17-4.6v10a45.6 45.6 0 0 1-8 3.2 42 42 0 0 1-12.3 1.5 27.8 27.8 0 0 1-13.6-3.1 20.3 20.3 0 0 1-8.4-8.4 25.6 25.6 0 0 1-2.8-12 25 25 0 0 1 2.8-12 19.7 19.7 0 0 1 8.4-8.2 28.6 28.6 0 0 1 13.6-3 23.2 23.2 0 0 1 10.2 2.4 19 19 0 0 1 8.1 7.7q3.2 5.4 3.2 14zm-14.4-7.9a10.8 10.8 0 0 0-2-7 7.1 7.1 0 0 0-6-2.5 8 8 0 0 0-6.2 2.6 10 10 0 0 0-2.4 7zm67.5 26.6H155v-6.4a23.3 23.3 0 0 1-6.8 5.4 18.8 18.8 0 0 1-8.6 1.8q-9.8 0-12.7-6a30.5 30.5 0 0 1-2.8-13.4V111h15.3v24.4a16.4 16.4 0 0 0 1.1 6.4q1.2 2.8 5.1 2.8a7.1 7.1 0 0 0 5.4-2 33.9 33.9 0 0 0 4-5.1V111h15.3zm57.3-22.9a31 31 0 0 1-1.2 8.8 23.8 23.8 0 0 1-3.8 7.6 18 18 0 0 1-6.5 5.3 20.6 20.6 0 0 1-9.2 2 19.4 19.4 0 0 1-6.7-1 26.6 26.6 0 0 1-4.9-2.4v23.1h-15.3v-65.6h15.3v4a22.6 22.6 0 0 1 5.1-3.4 17 17 0 0 1 7.6-1.4 19.4 19.4 0 0 1 9.2 2.4 19 19 0 0 1 7.5 7.6q3 5.2 3 13zm-16 .4a15.3 15.3 0 0 0-1.3-6.6 8.2 8.2 0 0 0-3.2-3.7 8 8 0 0 0-4-1.1 9.6 9.6 0 0 0-4.5.9 15.9 15.9 0 0 0-3.3 2.3v17.2l1.7 1a15.3 15.3 0 0 0 1.9 1 12.8 12.8 0 0 0 2 .6 9 9 0 0 0 2.2.3 7.3 7.3 0 0 0 6-3.2q2.4-3.2 2.4-8.7z"/><path class="c" d="M67.3 161.2H52v-45.1h15.3zm-1.2-55.5a6.5 6.5 0 0 1-2 4.7 6.3 6.3 0 0 1-7.7 1 6.4 6.4 0 0 1-2.3-2.3 6.9 6.9 0 0 1-.9-3.4 6.7 6.7 0 0 1 1.9-4.8 6 6 0 0 1 4.5-2 6.1 6.1 0 0 1 4.6 2 6.6 6.6 0 0 1 1.9 4.8zm56.2 36.8H91.8a11.1 11.1 0 0 0 4.4 6.7 12.8 12.8 0 0 0 7.9 2.7q7.7 0 17-4.6v10a45.6 45.6 0 0 1-8 3.2 42 42 0 0 1-12.3 1.5 27.8 27.8 0 0 1-13.6-3.1 20.3 20.3 0 0 1-8.4-8.4 25.6 25.6 0 0 1-2.8-12 25 25 0 0 1 2.8-12 19.7 19.7 0 0 1 8.4-8.2 28.6 28.6 0 0 1 13.6-3 23.2 23.2 0 0 1 10.2 2.4 19 19 0 0 1 8.1 7.7q3.2 5.4 3.2 14zm-14.4-7.9a10.8 10.8 0 0 0-2-7 7.1 7.1 0 0 0-6-2.5 8 8 0 0 0-6.2 2.6 10 10 0 0 0-2.4 7zm67.5 26.6H160v-6.4a23.3 23.3 0 0 1-6.8 5.4 18.8 18.8 0 0 1-8.6 1.8q-9.8 0-12.7-6a30.5 30.5 0 0 1-2.8-13.4V116h15.3v24.4a16.4 16.4 0 0 0 1.1 6.4q1.2 2.8 5.1 2.8a7.1 7.1 0 0 0 5.4-2 33.9 33.9 0 0 0 4-5.1V116h15.3zm57.3-22.9a31 31 0 0 1-1.2 8.8 23.8 23.8 0 0 1-3.8 7.6 18 18 0 0 1-6.5 5.3 20.6 20.6 0 0 1-9.2 2 19.4 19.4 0 0 1-6.7-1 26.6 26.6 0 0 1-4.9-2.4v23.1h-15.3v-65.6h15.3v4a22.6 22.6 0 0 1 5.1-3.4 17 17 0 0 1 7.6-1.4 19.4 19.4 0 0 1 9.2 2.4 19 19 0 0 1 7.5 7.6q3 5.2 3 13zm-16 .4a15.3 15.3 0 0 0-1.3-6.6 8.2 8.2 0 0 0-3.2-3.7 8 8 0 0 0-4-1.1 9.6 9.6 0 0 0-4.5.9 15.9 15.9 0 0 0-3.3 2.3v17.2l1.7 1a15.3 15.3 0 0 0 1.9 1 12.8 12.8 0 0 0 2 .6 9 9 0 0 0 2.2.3 7.3 7.3 0 0 0 6-3.2q2.4-3.2 2.4-8.7z"/><path class="b" d="M72.3 166.2H57v-45.1h15.3zm-1.2-55.5a6.5 6.5 0 0 1-2 4.7 6.3 6.3 0 0 1-7.7 1 6.4 6.4 0 0 1-2.3-2.3 6.9 6.9 0 0 1-.9-3.4 6.7 6.7 0 0 1 1.9-4.8 6 6 0 0 1 4.5-2 6.1 6.1 0 0 1 4.6 2 6.6 6.6 0 0 1 1.9 4.8zm56.2 36.8H96.8a11.1 11.1 0 0 0 4.4 6.7 12.8 12.8 0 0 0 7.9 2.7q7.7 0 17-4.6v10a45.6 45.6 0 0 1-8 3.2 42 42 0 0 1-12.3 1.5 27.8 27.8 0 0 1-13.6-3.1 20.3 20.3 0 0 1-8.4-8.4 25.6 25.6 0 0 1-2.8-12 25 25 0 0 1 2.8-12 19.7 19.7 0 0 1 8.4-8.2 28.6 28.6 0 0 1 13.6-3 23.2 23.2 0 0 1 10.2 2.4 19 19 0 0 1 8.1 7.7q3.2 5.4 3.2 14zm-14.4-7.9a10.8 10.8 0 0 0-2-7 7.1 7.1 0 0 0-6-2.5 8 8 0 0 0-6.2 2.6 10 10 0 0 0-2.4 7zm67.5 26.6H165v-6.4a23.3 23.3 0 0 1-6.8 5.4 18.8 18.8 0 0 1-8.6 1.8q-9.8 0-12.7-6a30.5 30.5 0 0 1-2.8-13.4V121h15.3v24.4a16.4 16.4 0 0 0 1.1 6.4q1.2 2.8 5.1 2.8a7.1 7.1 0 0 0 5.4-2 33.9 33.9 0 0 0 4-5.1V121h15.3zm57.3-22.9a31 31 0 0 1-1.2 8.8 23.8 23.8 0 0 1-3.8 7.6 18 18 0 0 1-6.5 5.3 20.6 20.6 0 0 1-9.2 2 19.4 19.4 0 0 1-6.7-1 26.6 26.6 0 0 1-4.9-2.4v23.1h-15.3v-65.6h15.3v4a22.6 22.6 0 0 1 5.1-3.4 17 17 0 0 1 7.6-1.4 19.4 19.4 0 0 1 9.2 2.4 19 19 0 0 1 7.5 7.6q3 5.2 3 13zm-16 .4a15.3 15.3 0 0 0-1.3-6.6 8.2 8.2 0 0 0-3.2-3.7 8 8 0 0 0-4-1.1 9.6 9.6 0 0 0-4.5.9 15.9 15.9 0 0 0-3.3 2.3v17.2l1.7 1a15.3 15.3 0 0 0 1.9 1 12.8 12.8 0 0 0 2 .6 9 9 0 0 0 2.2.3 7.3 7.3 0 0 0 6-3.2q2.4-3.2 2.4-8.7z"/></svg>